# xmcd
#
# Track frame offsets:
#	150
#	1262
#	30884
#	83570
#	119115
#	154299
#	179237
#	207778
#
# Disc length: 3247 seconds
#
# Revision: 0
# Processed by: cddbd v1.5.2PL0 Copyright (c) Steve Scherf et al.
# Submitted via: audiograbber 1.83.01
#
DISCID=600cad08
DTITLE=Grateful Dead - 94-07-23 Soldier Field, Chicago IL
DYEAR=1900
DGENRE=
TTITLE0=Crowd
TTITLE1=Picasso Moon
TTITLE2=Sugaree
TTITLE3=New Minglewood Blues
TTITLE4=Lazy River Road
TTITLE5=When I Paint My Masterpiece
TTITLE6=Brown Eyed Women
TTITLE7=Cassidy
EXTD=
EXTT0=
EXTT1=
EXTT2=
EXTT3=
EXTT4=
EXTT5=
EXTT6=
EXTT7=
PLAYORDER=
